<?xml version="1.0" encoding="UTF-8"?>
<svg version="1.1" xmlns="http://www.w3.org/2000/svg" width="591" height="295">
<path d="M0 0 C12.63216644 10.92112048 21.48013451 24.51284239 24.5 41.0625 C24.71875 44.84765625 24.71875 44.84765625 24.5 48.0625 C20.37030634 52.19219366 13.7177614 51.33305244 8.1875 51.375 C-11.52274431 51.375 -28.78146612 44.97061267 -42.84375 30.91796875 C-52.39824086 20.64689108 -61.33283588 6.57233955 -61.8125 -7.9375 C-61.5 -10.9375 -61.5 -10.9375 -59.5 -12.9375 C-39.12545073 -19.75708054 -16.45467568 -12.61861632 0 0 Z " fill="#57B846" transform="translate(237.5,67.9375)"/>
<path d="M0 0 C1 1 1 1 1.125 4.3125 C1.02743296 7.19072763 0.75500017 9.28559463 0 12 C-0.84304688 12.12117187 -1.68609375 12.24234375 -2.5546875 12.3671875 C-3.65039062 12.53476563 -4.74609375 12.70234375 -5.875 12.875 C-6.96554687 13.03742188 -8.05609375 13.19984375 -9.1796875 13.3671875 C-12.11932714 13.76256513 -12.11932714 13.76256513 -14 16 C-13.34 17.11375 -12.68 18.2275 -12 19.375 C-8.82508604 25.78132104 -9.21157248 31.99323637 -11.1875 38.75 C-14.12826318 46.41217197 -18.30187476 49.54418641 -25.5 53.01953125 C-31.237003 55.26951211 -36.67570038 55.09106896 -42.75 55 C-44.47389726 54.97461123 -46.19786538 54.9535373 -47.921875 54.9375 C-49.06027832 54.92009766 -49.06027832 54.92009766 -50.22167969 54.90234375 C-52.02545484 54.80303126 -52.02545484 54.80303126 -53 56 C-53.25005386 58.95817107 -53.25005386 58.95817107 -53 62 C-48.00710577 66.99289423 -37.28290679 66.07286565 -30.49194336 66.28955078 C-11.75306741 66.90141817 -11.75306741 66.90141817 -5.26953125 72.4921875 C-0.76955608 77.55938643 -0.66010819 82.38885388 -0.71484375 88.85546875 C-1.31087622 95.42815562 -4.34536261 101.34536261 -9 106 C-20.88337133 115.36773829 -34.1337347 117.10457257 -48.9375 115.7265625 C-56.70769231 114.58261752 -62.61897875 111.92830304 -67.875 106 C-71.86070493 100.37312245 -72.72621666 95.79693403 -72 89 C-70.40261211 82.02390757 -66.96757561 77.97838374 -61 74 C-61.474375 73.566875 -61.94875 73.13375 -62.4375 72.6875 C-65.28270201 69.61468183 -65.33037719 66.18788761 -65.29296875 62.1328125 C-64.67800386 57.65586813 -62.15898612 54.15898612 -59 51 C-60.3921875 49.948125 -60.3921875 49.948125 -61.8125 48.875 C-65.95100924 45.74812635 -67.74616772 41.78528702 -68.46875 36.703125 C-68.54077633 28.74421549 -67.93062166 22.46327273 -63 16 C-55.34548091 8.4555048 -46.4421576 7.08240711 -36 7 C-30.3359046 7.53162425 -25.01771393 8.20188658 -20 11 C-19.773125 10.113125 -19.54625 9.22625 -19.3125 8.3125 C-15.54780503 -1.18887302 -9.23470255 -0.91303556 0 0 Z M-53.421875 21.6953125 C-56.17016399 26.3448151 -56.42344961 30.45394409 -55.60546875 35.734375 C-54.42181209 40.16354185 -52.10890322 42.19604516 -48.5 44.8125 C-42.79310192 46.74876899 -36.57312764 47.16596797 -30.7734375 45.2734375 C-26.91532475 43.25408487 -24.4726862 41.07154421 -23 37 C-22.3586567 31.75701851 -22.37136354 27.44062523 -24.5 22.5625 C-28.81246946 18.1422188 -33.27653903 15.82245912 -39.5 15.5 C-45.02962522 15.80560968 -49.78773456 17.36229889 -53.421875 21.6953125 Z M-59.3125 83.75 C-60.78081928 88.55540854 -60.50177699 92.62671559 -58.8125 97.25 C-55.77809262 101.85392844 -52.2100972 104.34577647 -47 106 C-36.61062943 107.1993805 -25.59384956 107.15227921 -17.0703125 100.4921875 C-13.9335899 97.38437479 -12.61099312 94.80724584 -12.375 90.375 C-12.68244093 86.1780738 -13.79795461 83.85587832 -17 81 C-24.11673908 76.81368289 -34.79008339 77.77413517 -42.8125 77.6875 C-43.72708984 77.65849609 -44.64167969 77.62949219 -45.58398438 77.59960938 C-51.93202943 77.53959149 -55.34141344 78.45521793 -59.3125 83.75 Z " fill="#57B846" transform="translate(584,119)"/>
<path d="M0 0 C1.7074998 1.28062485 3.39371931 2.59450439 5 4 C5.51949219 3.59007812 6.03898437 3.18015625 6.57421875 2.7578125 C7.27160156 2.21898437 7.96898437 1.68015625 8.6875 1.125 C9.37199219 0.59132812 10.05648437 0.05765625 10.76171875 -0.4921875 C17.71510277 -5.17631705 26.14250578 -5.71119748 34.25 -4.3125 C39.29644381 -3.0949453 43.95826833 -1.6144125 47.28125 2.640625 C50.44181469 7.83298127 51.12748487 12.5639614 51.11352539 18.5246582 C51.11341209 20.14577263 51.11341209 20.14577263 51.11329651 21.79963684 C51.10813522 22.9550145 51.10297394 24.11039215 51.09765625 25.30078125 C51.0962413 26.49229294 51.09482635 27.68380463 51.09336853 28.91142273 C51.08777728 32.71180751 51.07522632 36.51213307 51.0625 40.3125 C51.05748387 42.89127519 51.05292116 45.4700513 51.04882812 48.04882812 C51.0378107 54.36590818 51.02055201 60.68294406 51 67 C46.38 67 41.76 67 37 67 C37.01571045 65.51677246 37.0314209 64.03354492 37.04760742 62.50537109 C37.10198336 56.99273121 37.13637827 51.48011496 37.16479492 45.96728516 C37.179864 43.58312999 37.20032291 41.19900247 37.22631836 38.81494141 C37.26278337 35.38437063 37.27974552 31.954167 37.29296875 28.5234375 C37.30845261 27.46071625 37.32393646 26.397995 37.33988953 25.30307007 C37.3411359 19.7993661 37.21392746 15.70328512 34 11 C29.5981484 7.6986113 25.17156473 7.44223105 19.83203125 7.56640625 C15.08748897 8.29281203 10.42950366 10.57049634 7 14 C6.87709282 15.65644366 6.82216092 17.31798993 6.79467773 18.97875977 C6.77473251 20.03978409 6.75478729 21.10080841 6.73423767 22.19398499 C6.71752518 23.348134 6.70081268 24.50228302 6.68359375 25.69140625 C6.66281265 26.86638168 6.64203156 28.04135712 6.62062073 29.25193787 C6.55499876 33.02206324 6.4961817 36.79226082 6.4375 40.5625 C6.3943268 43.11133573 6.35071292 45.66016403 6.30664062 48.20898438 C6.19930451 54.4725814 6.09807309 60.73625136 6 67 C1.38 67 -3.24 67 -8 67 C-7.98952637 65.48647949 -7.97905273 63.97295898 -7.96826172 62.41357422 C-7.93201483 56.78908663 -7.90908232 51.16460935 -7.89013672 45.54003906 C-7.88008987 43.1074042 -7.86645006 40.67478138 -7.84912109 38.2421875 C-7.82481533 34.74215723 -7.81350356 31.24228688 -7.8046875 27.7421875 C-7.79436493 26.65759247 -7.78404236 25.57299744 -7.77340698 24.45553589 C-7.74283723 17.02269403 -7.74283723 17.02269403 -10 10 C-15.23499851 6.96921139 -22.12839437 7.35443079 -28 8 C-31.90271854 9.30090618 -35.06407124 11.06407124 -38 14 C-38.33116738 16.34409571 -38.33116738 16.34409571 -38.31884766 19.09228516 C-38.33871735 20.15323395 -38.35858704 21.21418274 -38.37905884 22.30728149 C-38.39638565 24.03076309 -38.39638565 24.03076309 -38.4140625 25.7890625 C-38.43342865 26.96262299 -38.4527948 28.13618347 -38.4727478 29.3453064 C-38.53267664 33.10512961 -38.57898246 36.86498323 -38.625 40.625 C-38.6631675 43.16928442 -38.70221849 45.71355575 -38.7421875 48.2578125 C-38.83838921 54.50510241 -38.92237112 60.75245281 -39 67 C-43.62 67 -48.24 67 -53 67 C-52.9278125 65.33195312 -52.855625 63.66390625 -52.78125 61.9453125 C-52.48763284 54.96461656 -52.23597035 47.98285957 -52 41 C-51.95262695 39.71536865 -51.95262695 39.71536865 -51.90429688 38.40478516 C-51.4449396 24.77424136 -53.16909676 11.49201315 -55 -2 C-48.07 -2.99 -48.07 -2.99 -41 -4 C-40.34 -1.36 -39.68 1.28 -39 4 C-38.53851563 3.60167969 -38.07703125 3.20335937 -37.6015625 2.79296875 C-26.69650488 -6.06469663 -12.09436043 -8.18651284 0 0 Z " fill="#57B846" transform="translate(338,131)"/>
<path d="M0 0 C4.0477922 4.0477922 3.30863685 10.34854069 3.31469727 15.78271484 C2.98907896 31.89407751 -3.24617853 46.99495728 -14.4296875 58.65234375 C-25.79157895 69.02999841 -39.43981061 75.96265404 -55 77 C-55.99 76.67 -56.98 76.34 -58 76 C-63.34083044 63.63176108 -59.39427719 48.70750744 -54.71484375 36.703125 C-46.85308996 19.79706949 -33.51161463 8.63042149 -16.33203125 1.96484375 C-11.02348921 0.19532974 -5.59690327 -0.92879645 0 0 Z " fill="#57B846" transform="translate(337,36)"/>
<path d="M0 0 C0 12.21 0 24.42 0 37 C2.31 35.68 4.62 34.36 7 33 C16.09413643 30.09565874 25.58879564 30.16799039 34.3125 34.125 C42.15399468 38.474482 46.0086496 44.70092017 49 53 C52.03608923 63.75988911 50.93064296 77.04712319 46 87 C41.43687917 94.73232002 34.7854537 101.43970351 26 104 C22.65532832 104.41040424 19.36609045 104.42021614 16 104.375 C14.70449219 104.39240234 14.70449219 104.39240234 13.3828125 104.41015625 C7.83271783 104.38485187 3.9423388 103.53832074 -1 101 C-1.99 101.99 -1.99 101.99 -3 103 C-5.8203125 103.1953125 -5.8203125 103.1953125 -9.125 103.125 C-10.22070312 103.10695313 -11.31640625 103.08890625 -12.4453125 103.0703125 C-13.28835938 103.04710937 -14.13140625 103.02390625 -15 103 C-14.99777939 102.07610474 -14.99555878 101.15220947 -14.99327087 100.20031738 C-14.97300883 91.37810851 -14.95789635 82.55590775 -14.94818783 73.73368073 C-14.94302841 69.20102423 -14.93606157 64.66838738 -14.92456055 60.13574219 C-14.87574866 40.39731849 -14.88420367 20.71449846 -16 1 C-15.03167236 0.92330078 -14.06334473 0.84660156 -13.06567383 0.76757812 C-11.39347778 0.63512695 -11.39347778 0.63512695 -9.6875 0.5 C-6.442101 0.24293869 -3.25558265 0 0 0 Z M0.89453125 46.53027344 C-1.79996862 50.0428457 -1.518884 53.31892088 -1.42578125 57.5625 C-1.42249313 58.39080322 -1.41920502 59.21910645 -1.41581726 60.07250977 C-1.4000842 62.71553904 -1.35603194 65.3572983 -1.3125 68 C-1.30100718 69.77863551 -1.29122245 71.55728294 -1.28320312 73.3359375 C-1.26977628 75.03647125 -1.25485254 76.73699398 -1.23828125 78.4375 C-1.23089432 79.23551025 -1.22350739 80.03352051 -1.21589661 80.85571289 C-1.14898601 86.01458479 -1.14898601 86.01458479 0 91 C5.62693852 94.9980879 12.75851971 95.5713563 19.46484375 94.66796875 C25.77227388 92.99676931 29.44232011 89.35585505 33 84 C37.27258016 76.30307251 38.04621973 66.57116181 35.79296875 58.1328125 C33.60976948 52.2607593 30.34259144 47.38798481 25 44 C16.95526421 40.50228879 8.02358292 41.3488152 0.89453125 46.53027344 Z " fill="#57B846" transform="translate(23,95)"/>
<path d="M0 0 C0.63292969 0.37382812 1.26585937 0.74765625 1.91796875 1.1328125 C9.34019308 5.91215525 12.92580782 12.56593253 15 21 C15.41766601 24.47046157 15.47798841 27.88215741 15.4375 31.375 C15.42920166 32.29893555 15.42090332 33.22287109 15.41235352 34.17480469 C15.13838664 45.23877665 12.0701377 54.14384323 4 62 C0.81068254 64.32222178 -2.45949723 66.26390137 -6 68 C-6.74507812 68.37511719 -7.49015625 68.75023437 -8.2578125 69.13671875 C-15.79938724 71.51091821 -26.79251148 71.43481548 -34.125 68.4375 C-42.60693954 63.69759261 -48.95257298 56.98367757 -52.109375 47.7578125 C-54.9477188 35.78199348 -53.67797537 22.48860576 -47.71484375 11.66796875 C-42.97077271 4.75668977 -35.86987824 -1.26934443 -27.71484375 -3.5625 C-18.15239786 -5.10349847 -8.40012062 -5.32181555 0 0 Z M-31.75 10.0625 C-38.02521279 18.25513891 -40.88685955 26.72193129 -40 37 C-38.1994377 46.54562809 -35.06651166 53.1921116 -27 59 C-21.95132416 61.46824152 -17.35981883 61.32792639 -12 60 C-4.65203415 56.11805578 -1.3676624 50.77595565 1.234375 43.09375 C3.99987851 31.91885828 1.42217326 22.49032859 -3.8125 12.5625 C-7.40166737 8.3580468 -11.09030581 6.53047061 -16.375 5.0625 C-22.32114154 4.95998032 -26.99206034 6.49404525 -31.75 10.0625 Z " fill="#57B846" transform="translate(173,130)"/>
<path d="M0 0 C8.0521389 5.62937145 12.76961629 12.43980905 15 22 C15.28905756 24.94356944 15.33411333 27.8561722 15.3125 30.8125 C15.30512817 32.00335205 15.30512817 32.00335205 15.29760742 33.21826172 C15.08788595 43.73444914 12.23858675 52.33610224 5.02734375 60.1328125 C-3.38872521 68.17780258 -11.31384993 70.61024182 -22.73779297 70.47314453 C-31.28165545 70.12103614 -38.16863337 67.59814871 -44.46875 61.69921875 C-51.48444371 53.91394639 -53.3944388 45.52340815 -53.375 35.25 C-53.37338867 34.36618652 -53.37177734 33.48237305 -53.37011719 32.57177734 C-53.24251147 25.76238614 -52.22407067 20.07742938 -49 14 C-48.1646875 12.4221875 -48.1646875 12.4221875 -47.3125 10.8125 C-35.71095697 -3.29748476 -16.78864875 -10.21786701 0 0 Z M-31.75 9.5625 C-38.65688686 17.04496077 -40.36962124 25.70062241 -40.28125 35.54296875 C-39.61796705 43.69582171 -36.35576651 50.87912399 -31 57 C-25.89740296 60.47904344 -19.94608278 61.67564987 -13.85546875 60.6328125 C-7.71598815 58.73109958 -4.02862375 54.72442641 -1 49.1640625 C3.20853641 39.89718906 3.15502341 29.75715021 -0.08984375 20.21875 C-2.36326388 14.6766786 -5.81262015 10.08937289 -11 7 C-18.75725285 3.78000825 -24.69655092 5.55485847 -31.75 9.5625 Z " fill="#57B846" transform="translate(255,130)"/>
<path d="M0 0 C4.06319336 4.30030279 5.12627616 8.79690012 5.11352539 14.57299805 C5.11344986 15.71395432 5.11337433 16.85491058 5.11329651 18.03044128 C5.10813522 19.26176285 5.10297394 20.49308441 5.09765625 21.76171875 C5.0962413 23.02264847 5.09482635 24.28357819 5.09336853 25.5827179 C5.08871575 28.93151709 5.07973342 32.28024811 5.06866455 35.62902832 C5.05842687 39.04760143 5.05386586 42.46618159 5.04882812 45.88476562 C5.03779099 52.58986504 5.0205222 59.29492317 5 66 C0.38 66 -4.24 66 -9 66 C-8.9278125 64.17597656 -8.855625 62.35195312 -8.78125 60.47265625 C-8.14020895 44.36556194 -8.14020895 44.36556194 -7.8125 28.25 C-7.79832031 27.01765625 -7.78414063 25.7853125 -7.76953125 24.515625 C-8.13049176 19.00944766 -8.8261256 14.41466914 -12.4375 10.0625 C-17.59633677 5.91026552 -23.65785098 6.40272203 -30 7 C-33.20037688 8.02486596 -36.03778981 9.43399079 -39 11 C-39.99 11.33 -40.98 11.66 -42 12 C-42 29.82 -42 47.64 -42 66 C-46.62 66 -51.24 66 -56 66 C-55.98952637 64.54932129 -55.97905273 63.09864258 -55.96826172 61.60400391 C-55.93160437 56.13576807 -55.90893596 50.66754269 -55.89013672 45.19921875 C-55.88018197 42.84861413 -55.86661333 40.49802155 -55.84912109 38.14746094 C-55.7486386 24.28087729 -56.01758552 10.73833348 -58 -3 C-48.5 -5 -48.5 -5 -44 -5 C-43.34 -2.69 -42.68 -0.38 -42 2 C-41.39414062 1.59007812 -40.78828125 1.18015625 -40.1640625 0.7578125 C-27.66712006 -7.27868279 -12.69303792 -8.99790023 0 0 Z " fill="#57B846" transform="translate(494,132)"/>
<path d="M0 0 C20.32339629 1.96318208 38.1908129 14.40858042 51.828125 28.94921875 C53.54881076 31.96041883 53.55041772 33.55783546 53 37 C51.47351619 39.98954848 49.58956251 42.65899233 47.625 45.375 C46.86316406 46.47908203 46.86316406 46.47908203 46.0859375 47.60546875 C43.30261228 51.55339583 43.30261228 51.55339583 42 53 C41.34 53 40.68 53 40 53 C39.87882812 52.26394531 39.75765625 51.52789062 39.6328125 50.76953125 C39.38144531 49.30580078 39.38144531 49.30580078 39.125 47.8125 C38.88136719 46.36810547 38.88136719 46.36810547 38.6328125 44.89453125 C38.01336346 42.06112544 37.25786941 39.61214487 36 37 C33.09514348 35.2248099 31.27986987 34.9944026 27.875 35.0625 C24.89492511 35.74490077 24.89492511 35.74490077 23.33203125 38.0703125 C21.67328853 41.71857362 21.66625561 44.89390032 21.8125 48.8125 C21.82603516 49.50537109 21.83957031 50.19824219 21.85351562 50.91210938 C21.88861155 52.60841265 21.94241057 54.30431136 22 56 C21.53851563 55.64808594 21.07703125 55.29617187 20.6015625 54.93359375 C18.41091238 53.27545344 16.20784699 51.63517542 14 50 C13.24074219 49.43539062 12.48148438 48.87078125 11.69921875 48.2890625 C5.90401812 44.0967897 -0.07939827 40.67746601 -6.41015625 37.3828125 C-9 36 -9 36 -10 35 C-10.17056249 27.58053153 -8.86219002 20.60767501 -6.6875 13.5625 C-6.38658447 12.57044556 -6.38658447 12.57044556 -6.07958984 11.55834961 C-4.63023294 7.12214993 -2.70895587 3.73708837 0 0 Z " fill="#57B846" transform="translate(234,17)"/>
<path d="M0 0 C0 33.99 0 67.98 0 103 C-4.95 103 -9.9 103 -15 103 C-14.99476318 100.58518311 -14.98952637 98.17036621 -14.98413086 95.68237305 C-14.96742525 87.62787417 -14.95646161 79.57337444 -14.94818783 71.51886272 C-14.94300954 66.64415748 -14.93600591 61.76947026 -14.92456055 56.89477539 C-14.91354927 52.1744399 -14.90768531 47.45412154 -14.90512276 42.73377419 C-14.90330087 40.94922428 -14.89974499 39.16467511 -14.89426994 37.38013268 C-14.85850583 25.21918777 -15.24306953 13.13776178 -16 1 C-14.94538574 0.92330078 -13.89077148 0.84660156 -12.80419922 0.76757812 C-11.59006348 0.67927734 -10.37592773 0.59097656 -9.125 0.5 C-2.25 0 -2.25 0 0 0 Z " fill="#57B846" transform="translate(104,95)"/>
<path d="M0 0 C0.33 1.32 0.66 2.64 1 4 C2.36125 3.01 2.36125 3.01 3.75 2 C8.79099078 -0.8908539 14.3552955 -0.85362698 20 0 C21.67870263 0.97966079 23.34663113 1.97816383 25 3 C28.91953092 3.33678613 28.91953092 3.33678613 31.5625 1.5 C37.46514177 -1.07569823 43.46761804 -0.90442213 49.5 1.25 C52.57673905 3.40371733 54.60597367 5.3766946 55.50952148 9.09912109 C56.05309509 16.27917183 56.11466542 23.42617222 56.0625 30.625 C56.05798828 31.81996094 56.05347656 33.01492187 56.04882812 34.24609375 C56.03715603 37.16411647 56.02078326 40.08203037 56 43 C53.03 43 50.06 43 47 43 C47.01047363 42.18321777 47.02094727 41.36643555 47.03173828 40.52490234 C47.07342671 36.80829978 47.09936727 33.09174654 47.125 29.375 C47.14175781 28.08980469 47.15851563 26.80460937 47.17578125 25.48046875 C47.18222656 24.23652344 47.18867188 22.99257812 47.1953125 21.7109375 C47.20578613 20.56931152 47.21625977 19.42768555 47.22705078 18.25146484 C46.98822376 14.83135913 46.32844727 12.15528085 45 9 C42.70122891 7.85061445 41.24537319 7.80158736 38.6875 7.75 C37.54861328 7.71132812 37.54861328 7.71132812 36.38671875 7.671875 C33.17356313 8.11361816 31.5330676 8.95314711 29 11 C28.47031898 13.63310887 28.27780609 15.65390882 28.29296875 18.29296875 C28.27784744 18.99899734 28.26272614 19.70502594 28.24714661 20.43244934 C28.20420511 22.68445609 28.19542667 24.93512434 28.1875 27.1875 C28.16436028 28.71553054 28.13899602 30.24352912 28.11132812 31.77148438 C28.04841366 35.51444153 28.0161287 39.25656064 28 43 C25.03 43 22.06 43 19 43 C19.01571045 42.04633545 19.0314209 41.0926709 19.04760742 40.11010742 C19.10191678 36.57113087 19.13635333 33.03219114 19.16479492 29.49291992 C19.17987936 27.96128139 19.20034978 26.42968602 19.22631836 24.89819336 C19.26271847 22.69634346 19.27972913 20.49506467 19.29296875 18.29296875 C19.30845261 17.60849167 19.32393646 16.92401459 19.33988953 16.21879578 C19.34090806 13.34004581 19.32413637 11.45615562 17.62792969 9.0690918 C15.37656941 7.5905815 13.73873134 7.60085355 11.0625 7.625 C10.20785156 7.61726562 9.35320312 7.60953125 8.47265625 7.6015625 C5.37339642 8.1009693 4.19860821 8.74610599 2 11 C1.57285919 13.56494618 1.3952377 15.72322205 1.390625 18.29296875 C1.37408875 18.99899734 1.35755249 19.70502594 1.34051514 20.43244934 C1.29198712 22.68422092 1.27065562 24.93531709 1.25 27.1875 C1.22184401 28.71552886 1.19191709 30.24352619 1.16015625 31.77148438 C1.08622806 35.51426728 1.03668377 39.25667424 1 43 C-1.97 43 -4.94 43 -8 43 C-7.99476318 42.08299316 -7.98952637 41.16598633 -7.98413086 40.22119141 C-7.96694563 36.77326816 -7.95448076 33.32539137 -7.94506836 29.87744141 C-7.94008292 28.39371008 -7.93329215 26.90998354 -7.92456055 25.42626953 C-7.87753603 17.22187384 -7.9783645 9.15699528 -9 1 C-2.25 0 -2.25 0 0 0 Z " fill="#FFA037" transform="translate(307,222)"/>
<path d="M0 0 C0 23.43 0 46.86 0 71 C-4.62 71 -9.24 71 -14 71 C-13.98952637 69.69144043 -13.97905273 68.38288086 -13.96826172 67.03466797 C-13.93139126 62.06578432 -13.90886216 57.09691202 -13.89013672 52.12792969 C-13.88022876 49.99867708 -13.86669863 47.86943749 -13.84912109 45.74023438 C-13.73096777 31.03362089 -14.39195915 16.62102528 -16 2 C-14.16104415 1.75274543 -12.32208737 1.50549777 -10.48312378 1.25830078 C-9.06105343 1.06704944 -7.63903354 0.87542287 -6.21704102 0.68359375 C-1.11111111 0 -1.11111111 0 0 0 Z " fill="#57B846" transform="translate(420,127)"/>
<path d="M0 0 C0.73798828 -0.020625 1.47597656 -0.04125 2.23632812 -0.0625 C7.09433164 -0.0970458 10.33387776 0.6103146 14.5625 3.25 C17.96901856 7.00891703 18.69032075 10.24421742 18.625 15.22265625 C18.61726563 16.20556641 18.60953125 17.18847656 18.6015625 18.20117188 C18.57586408 20.24805121 18.5498317 22.29492639 18.5234375 24.34179688 C18.47373636 30.71596811 18.77955716 36.92266839 19.5625 43.25 C13.5078125 43.4453125 13.5078125 43.4453125 11.5625 43.25 C10.9025 42.59 10.2425 41.93 9.5625 41.25 C8.63630859 41.59224609 8.63630859 41.59224609 7.69140625 41.94140625 C0.47804944 44.38977546 -5.29847169 45.09935308 -12.375 41.9375 C-14.67114823 40.05883327 -15.57221997 39.08182554 -16.4375 36.25 C-16.92115156 31.02656319 -16.36096277 27.63519415 -13.4375 23.25 C-6.70935265 17.34235842 1.9785063 16.93207431 10.5625 17.25 C10.1129955 15.93445015 9.65260284 14.62261642 9.1875 13.3125 C8.93226563 12.58160156 8.67703125 11.85070312 8.4140625 11.09765625 C7.70978587 9.06317884 7.70978587 9.06317884 5.5625 8.25 C4.04101674 8.16627341 2.51594222 8.14269973 0.9921875 8.15234375 C-0.35166016 8.15717773 -0.35166016 8.15717773 -1.72265625 8.16210938 C-2.65980469 8.17048828 -3.59695313 8.17886719 -4.5625 8.1875 C-5.97982422 8.19426758 -5.97982422 8.19426758 -7.42578125 8.20117188 C-9.76308387 8.21297643 -12.10026061 8.22944241 -14.4375 8.25 C-14.1075 5.94 -13.7775 3.63 -13.4375 1.25 C-8.94107241 0.14592669 -4.60175972 0.03198443 0 0 Z M-6.4375 26.25 C-8.58512184 29.47143276 -8.998568 30.5095467 -8.4375 34.25 C-6.65041801 36.50327729 -5.21147187 37.14278947 -2.37890625 37.53515625 C2.69952138 37.7321273 6.1468009 36.9673533 10.5625 34.25 C10.5625 30.62 10.5625 26.99 10.5625 23.25 C4.00489714 22.94261237 -0.47809913 23.4271259 -6.4375 26.25 Z " fill="#FFA037" transform="translate(270.4375,221.75)"/>
<path d="M0 0 C4.02655656 3.83013916 6.3092801 7.57039729 6.8046875 13.1796875 C6.81158248 15.61361527 6.74152398 18.01073043 6.5625 20.4375 C0.02563616 21.42581156 -6.33327115 21.55633529 -12.9375 21.5 C-13.95070313 21.49548828 -14.96390625 21.49097656 -16.0078125 21.48632812 C-18.48443827 21.47464593 -20.96093657 21.45826582 -23.4375 21.4375 C-22.85971764 22.88950368 -22.26530825 24.33489767 -21.6640625 25.77734375 C-21.33486816 26.58292725 -21.00567383 27.38851074 -20.66650391 28.21850586 C-18.94277442 31.33073814 -16.9500682 32.53395716 -13.71484375 33.859375 C-7.36317831 35.47180465 -0.80766483 34.54535475 5.5625 33.4375 C5.6875 36.3125 5.6875 36.3125 5.5625 39.4375 C2.0805313 42.9194687 -2.64068056 42.39955622 -7.375 42.625 C-14.36939632 42.50324068 -19.89777173 40.84410204 -25.4375 36.4375 C-30.86491658 30.55779871 -31.90946803 25.33055736 -31.74609375 17.5078125 C-31.10253864 11.10484642 -28.79795969 6.35746291 -24.0625 2 C-16.69438334 -3.59603797 -8.35888214 -3.79949188 0 0 Z M-19.4375 6.4375 C-22.42866867 9.53181242 -22.53432375 10.92161877 -23.4375 15.4375 C-16.1775 15.4375 -8.9175 15.4375 -1.4375 15.4375 C-2.81116579 8.24185376 -2.81116579 8.24185376 -4.625 5.5 C-9.95385037 2.37619117 -14.47978376 3.1699143 -19.4375 6.4375 Z " fill="#FFA037" transform="translate(461.4375,223.5625)"/>
<path d="M0 0 C1.74216797 0.05414063 1.74216797 0.05414063 3.51953125 0.109375 C4.39996094 0.15578125 5.28039062 0.2021875 6.1875 0.25 C5.5275 2.56 4.8675 4.87 4.1875 7.25 C2.5478125 7.1571875 2.5478125 7.1571875 0.875 7.0625 C-2.64413543 6.91483941 -2.64413543 6.91483941 -4.46875 8.40625 C-6.25549515 10.85783056 -6.54346239 12.95244639 -7 15.9375 C-7.268125 17.690625 -7.53625 19.44375 -7.8125 21.25 C-3.8525 21.25 0.1075 21.25 4.1875 21.25 C4.1875 23.56 4.1875 25.87 4.1875 28.25 C0.2275 28.25 -3.7325 28.25 -7.8125 28.25 C-7.7403125 29.27996094 -7.668125 30.30992187 -7.59375 31.37109375 C-6.90925421 41.68001524 -6.69614483 51.92024627 -6.8125 62.25 C-9.7825 62.25 -12.7525 62.25 -15.8125 62.25 C-15.93108127 50.86619816 -15.67862792 39.60246238 -14.8125 28.25 C-18.1125 28.25 -21.4125 28.25 -24.8125 28.25 C-24.4825 25.94 -24.1525 23.63 -23.8125 21.25 C-20.8425 21.25 -17.8725 21.25 -14.8125 21.25 C-14.84730469 20.60933594 -14.88210937 19.96867187 -14.91796875 19.30859375 C-15.10214614 13.42368751 -14.78777546 9.37978528 -11.8125 4.25 C-7.92239639 0.37378961 -5.43111617 -0.21943904 0 0 Z " fill="#FFA037" transform="translate(245.8125,202.75)"/>
<path d="M0 0 C0.71091797 -0.00322266 1.42183594 -0.00644531 2.15429688 -0.00976562 C5.89893905 0.0289842 7.62669024 0.18862683 10.8125 2.3125 C10.1525 4.2925 9.4925 6.2725 8.8125 8.3125 C7.93207031 8.21710938 7.05164063 8.12171875 6.14453125 8.0234375 C4.40236328 7.85714844 4.40236328 7.85714844 2.625 7.6875 C1.47644531 7.57148438 0.32789063 7.45546875 -0.85546875 7.3359375 C-4.22080416 7.31226574 -6.19971706 7.83830201 -9.1875 9.3125 C-9.1875 10.9625 -9.1875 12.6125 -9.1875 14.3125 C-8.548125 14.56 -7.90875 14.8075 -7.25 15.0625 C-6.239375 15.475 -5.22875 15.8875 -4.1875 16.3125 C-3.48625 16.59222656 -2.785 16.87195313 -2.0625 17.16015625 C3.27684452 19.38788952 9.09153905 21.87057809 11.8125 27.3125 C12.15967992 32.60699372 12.33671718 36.05913444 8.8125 40.3125 C2.97138459 44.61647978 -2.50110894 44.41914971 -9.5 43.875 C-10.24056641 43.82279297 -10.98113281 43.77058594 -11.74414062 43.71679688 C-13.55902709 43.58799848 -15.37333325 43.45106738 -17.1875 43.3125 C-17.98703138 40.02553767 -18.28408936 38.60226808 -17.1875 35.3125 C-16.259375 35.4775 -15.33125 35.6425 -14.375 35.8125 C-4.8582113 37.24146102 -4.8582113 37.24146102 3.8125 34.3125 C3.9250709 31.92838259 3.9250709 31.92838259 2.8125 29.3125 C0.39425343 27.58884789 -2.28004025 26.48329632 -5 25.3125 C-14.15982491 21.30660324 -14.15982491 21.30660324 -17.1875 16.3125 C-18.10964043 12.47871932 -17.51104754 9.12136886 -16.0625 5.5 C-11.6853737 0.39335265 -6.39036195 -0.14724336 0 0 Z " fill="#FFA037" transform="translate(493.1875,221.6875)"/>
<path d="M0 0 C0 20.46 0 40.92 0 62 C-2.97 62 -5.94 62 -9 62 C-9.33 41.87 -9.66 21.74 -10 1 C-3 0 -3 0 0 0 Z " fill="#FFA037" transform="translate(401,203)"/>
<path d="M0 0 C0 14.19 0 28.38 0 43 C-2.97 43 -5.94 43 -9 43 C-8.99476318 42.11328613 -8.98952637 41.22657227 -8.98413086 40.31298828 C-8.96693892 36.97688121 -8.95447758 33.64082223 -8.94506836 30.3046875 C-8.94008493 28.86945852 -8.93329575 27.43423449 -8.92456055 25.99902344 C-8.88024576 18.52285844 -8.88064554 11.14602188 -9.88110352 3.71826172 C-9.92033936 3.15123535 -9.9595752 2.58420898 -10 2 C-7.75858472 -0.24141528 -3.06492894 0 0 0 Z " fill="#FFA037" transform="translate(381,222)"/>
<path d="M0 0 C0 14.19 0 28.38 0 43 C-2.97 43 -5.94 43 -9 43 C-9.495 22.21 -9.495 22.21 -10 1 C-2 0 -2 0 0 0 Z " fill="#FFA037" transform="translate(421,222)"/>
<path d="M0 0 C3.07706081 2.55170897 3.86329404 4.06258768 4.4375 8 C3.94702329 11.36326885 3.01736344 13.28431844 1 16 C-1.32686453 17.16343227 -2.84721413 17.19895988 -5.4375 17.25 C-6.21996094 17.27578125 -7.00242187 17.3015625 -7.80859375 17.328125 C-10.51738351 16.92253081 -11.3216094 16.11466951 -13 14 C-14.41000664 11.17998673 -14.24548451 9.12992745 -14 6 C-10.84697882 -0.44936151 -6.82292311 -1.06646045 0 0 Z " fill="#57B846" transform="translate(419,100)"/>
<path d="M0 0 C2 3 2 3 1.8125 6.0625 C1 9 1 9 -2 11 C-5.1875 10.625 -5.1875 10.625 -8 10 C-9.32850242 3.59903382 -9.32850242 3.59903382 -7.9375 1.0625 C-5.14511207 -0.46880951 -3.12606798 -0.39907251 0 0 Z " fill="#FFA037" transform="translate(381,206)"/>
<path d="M0 0 C3 0.25 3 0.25 5 2.25 C5.375 5.1875 5.375 5.1875 5 8.25 C3.3125 10.1875 3.3125 10.1875 1 11.25 C-1.625 11.125 -1.625 11.125 -4 10.25 C-6 7.25 -6 7.25 -5.75 4.6875 C-4.63523671 1.06451932 -3.80176857 0.31681405 0 0 Z " fill="#FFA037" transform="translate(417,205.75)"/>
</svg>
