<?xml version="1.0" encoding="UTF-8"?>
<svg version="1.1" xmlns="http://www.w3.org/2000/svg" width="172" height="172">
<path d="M0 0 C12.63216644 10.92112048 21.48013451 24.51284239 24.5 41.0625 C24.71875 44.84765625 24.71875 44.84765625 24.5 48.0625 C20.37030634 52.19219366 13.7177614 51.33305244 8.1875 51.375 C-11.52274431 51.375 -28.78146612 44.97061267 -42.84375 30.91796875 C-52.39824086 20.64689108 -61.33283588 6.57233955 -61.8125 -7.9375 C-61.5 -10.9375 -61.5 -10.9375 -59.5 -12.9375 C-39.12545073 -19.75708054 -16.45467568 -12.61861632 0 0 Z " fill="#5DBA4D" transform="translate(65.5,75.9375)"/>
<path d="M0 0 C4.0477922 4.0477922 3.30863685 10.34854069 3.31469727 15.78271484 C2.98907896 31.89407751 -3.24617853 46.99495728 -14.4296875 58.65234375 C-25.79157895 69.02999841 -39.43981061 75.96265404 -55 77 C-55.99 76.67 -56.98 76.34 -58 76 C-63.34083044 63.63176108 -59.39427719 48.70750744 -54.71484375 36.703125 C-46.85308996 19.79706949 -33.51161463 8.63042149 -16.33203125 1.96484375 C-11.02348921 0.19532974 -5.59690327 -0.92879645 0 0 Z " fill="#5DBA4D" transform="translate(165,44)"/>
<path d="M0 0 C20.32339629 1.96318208 38.1908129 14.40858042 51.828125 28.94921875 C53.54881076 31.96041883 53.55041772 33.55783546 53 37 C51.47351619 39.98954848 49.58956251 42.65899233 47.625 45.375 C46.86316406 46.47908203 46.86316406 46.47908203 46.0859375 47.60546875 C43.30261228 51.55339583 43.30261228 51.55339583 42 53 C41.34 53 40.68 53 40 53 C39.87882812 52.26394531 39.75765625 51.52789062 39.6328125 50.76953125 C39.38144531 49.30580078 39.38144531 49.30580078 39.125 47.8125 C38.88136719 46.36810547 38.88136719 46.36810547 38.6328125 44.89453125 C38.01336346 42.06112544 37.25786941 39.61214487 36 37 C33.09514348 35.2248099 31.27986987 34.9944026 27.875 35.0625 C24.89492511 35.74490077 24.89492511 35.74490077 23.33203125 38.0703125 C21.67328853 41.71857362 21.66625561 44.89390032 21.8125 48.8125 C21.82603516 49.50537109 21.83957031 50.19824219 21.85351562 50.91210938 C21.88861155 52.60841265 21.94241057 54.30431136 22 56 C21.53851563 55.64808594 21.07703125 55.29617187 20.6015625 54.93359375 C18.41091238 53.27545344 16.20784699 51.63517542 14 50 C13.24074219 49.43539062 12.48148438 48.87078125 11.69921875 48.2890625 C5.90401812 44.0967897 -0.07939827 40.67746601 -6.41015625 37.3828125 C-9 36 -9 36 -10 35 C-10.17056249 27.58053153 -8.86219002 20.60767501 -6.6875 13.5625 C-6.38658447 12.57044556 -6.38658447 12.57044556 -6.07958984 11.55834961 C-4.63023294 7.12214993 -2.70895587 3.73708837 0 0 Z " fill="#62BC52" transform="translate(62,25)"/>
<path d="M0 0 C0.66 0.33 1.32 0.66 2 1 C-1.96 4.96 -5.92 8.92 -10 13 C-10.66 12.67 -11.32 12.34 -12 12 C-8.27653164 7.57905197 -4.70478962 3.42166518 0 0 Z " fill="#9ED594" transform="translate(131,55)"/>
</svg>
